<?xml version="1.0" encoding="utf-8"?>
<!-- Generator: Adobe Illustrator 28.0.0, SVG Export Plug-In . SVG Version: 6.00 Build 0)  -->
<svg version="1.1" id="Capa_1" xmlns="http://www.w3.org/2000/svg" xmlns:xlink="http://www.w3.org/1999/xlink" x="0px" y="0px"
	 viewBox="0 0 24 24" style="enable-background:new 0 0 24 24;" xml:space="preserve">
<path d="M21.5,6.7C21.5,6.7,21.5,6.7,21.5,6.7C21.5,6.7,21.5,6.7,21.5,6.7c-0.1,0.2-0.1,0.5-0.1,0.7c-0.1,0.2-0.1,0.4-0.3,0.6
	C20.9,8,20.8,8.1,20.6,8c-0.1-0.1-0.2-0.2-0.3-0.3c-0.1-0.2-0.1-0.3-0.1-0.5c0-0.2,0-0.4-0.1-0.6V6.5c0-0.2,0-0.4,0-0.6c0,0,0,0,0,0
	c0,0,0,0,0,0c0,0,0,0,0,0c0-0.2,0-0.4,0.1-0.6c0-0.1,0-0.2,0-0.3v0c0,0,0,0,0,0c-2-2.3-4.9-3.7-8.2-3.7c-4.9,0-9.1,3.2-10.4,7.7v0.1
	C1.8,8.6,2,8.3,2.2,8.1c0.2-0.2,0.5-0.5,0.7-0.8c0.2-0.2,0.5-0.5,0.7-0.8s0.5-0.5,0.8-0.7c0.2-0.2,0.5-0.4,0.7-0.6c0,0,0,0,0.1-0.1
	c0,0,0,0,0,0C5.5,4.9,5.7,4.7,6,4.5c0,0,0,0,0,0v0C6.2,4.3,6.4,4.1,6.6,4c0.3-0.2,0.7-0.5,1-0.7c0,0,0.1,0,0.1-0.1c0,0,0,0,0,0
	c0,0,0.1-0.1,0.1-0.1C8,3,8,3,8,3c0,0,0,0,0,0c0.2-0.1,0.4-0.2,0.5-0.3c1.2-0.7,2.6-1.2,4-1.2c0.4,0,0.7,0,1.1,0.1
	c0.3,0.1,0.6,0.1,0.9,0.3c0.2,0.2,0.4,0.4,0.2,0.7c-0.1,0.2-0.4,0.3-0.7,0.3c-0.1,0-0.3,0-0.4,0c-0.5,0-0.9-0.1-1.3-0.1
	c-0.5,0-0.9,0-1.4,0.1c-0.1,0-0.2,0-0.3,0c-0.1,0-0.2,0.1-0.3,0.1C10.2,3,10,3,9.9,3.1h0c0,0-0.1,0-0.1,0c-0.1,0-0.2,0-0.3,0.1
	c-0.1,0-0.2,0.1-0.3,0.1c-0.1,0-0.1,0-0.1,0C8.8,3.4,8.7,3.5,8.5,3.5C8.2,3.7,7.8,3.8,7.5,4C7.3,4.1,7.1,4.2,6.9,4.3
	C6.8,4.4,6.6,4.5,6.5,4.6c-0.1,0-0.1,0.1-0.2,0.1c0,0-0.1,0-0.1,0.1C6.1,4.8,6,4.9,6,4.9C5.8,5,5.6,5.2,5.5,5.3
	C5.4,5.3,5.3,5.4,5.3,5.5C5.1,5.6,4.9,5.7,4.8,5.8C3.9,6.5,3.2,7.3,2.5,8.2C2.4,8.3,2.3,8.4,2.3,8.5C2.2,8.6,2.1,8.7,2,8.8
	C2,8.9,1.9,9,1.9,9C1.7,9.3,1.5,9.5,1.3,9.8c0,0,0,0,0,0l0,0v0c-0.1,0.7-0.2,1.4-0.2,2.1c0,1.4,0.3,2.8,0.8,4c0,0,0,0,0,0.1v0l0,0
	c0-0.1,0-0.2,0-0.4c0-0.2,0-0.4,0.1-0.7c0.1-0.2,0.1-0.4,0.3-0.5c0.1-0.1,0.3-0.2,0.5-0.1c0.1,0.1,0.2,0.2,0.3,0.3
	c0.1,0.2,0.1,0.4,0.2,0.5c0,0.2,0,0.4,0,0.6c0,0.7,0,1.4-0.2,2.1C3,18,3,18.1,3,18.2c0,0,0,0,0,0c0,0,0,0,0,0c2,2.8,5.2,4.7,9,4.7
	c5.2,0,9.6-3.6,10.7-8.5c0,0,0,0,0-0.1c-0.3,0.5-0.8,1-1.2,1.5c-0.5,0.5-1,1-1.5,1.5c-0.5,0.5-1,1-1.6,1.4c-1.1,0.9-2.2,1.8-3.4,2.5
	c-0.8,0.4-1.6,0.8-2.4,1c-0.1,0-0.3,0.1-0.4,0.1c-0.1,0-0.2,0-0.3,0c-0.1,0-0.2,0-0.3,0.1c-0.2,0-0.4,0-0.5,0c-0.2,0-0.4,0-0.5,0
	c-0.2,0-0.3,0-0.5-0.1h-0.1c0,0,0,0-0.1,0c-0.3-0.1-0.6-0.1-0.8-0.3C9,21.9,8.8,21.6,9,21.3C9.1,21.1,9.4,21,9.6,21
	c0.1,0,0.3,0,0.4,0c0.1,0,0.2,0,0.2,0c0.1,0,0.3,0,0.4,0c0,0,0.1,0,0.2,0h0c0.1,0,0.2,0,0.2,0c0.1,0,0.2,0,0.2,0c0.1,0,0.2,0,0.3,0
	c0.3,0,0.7,0,1-0.1c0.1,0,0.2,0,0.3,0c0.1,0,0.2,0,0.3-0.1c0.6-0.1,1.2-0.3,1.8-0.6c0.2-0.1,0.4-0.2,0.6-0.3
	c0.2-0.1,0.3-0.1,0.4-0.2c0.1-0.1,0.2-0.1,0.2-0.1c0.1,0,0.2-0.1,0.2-0.2c0.1-0.1,0.2-0.1,0.4-0.2c0.3-0.2,0.7-0.4,1-0.6
	c0.2-0.1,0.3-0.2,0.4-0.3c0.2-0.1,0.3-0.2,0.5-0.4c0.8-0.7,1.6-1.5,2.3-2.4c0.6-0.7,1.1-1.5,1.6-2.3v0c0,0,0,0,0,0c0,0,0,0,0-0.1
	c0.1-0.4,0.1-0.9,0.1-1.3C22.9,10,22.4,8.2,21.5,6.7z M11.8,20.4c-4.8,0-8.6-3.7-8.6-8.3c0-4.6,3.9-8.3,8.6-8.3
	c4.8,0,8.6,3.7,8.6,8.3C20.5,16.7,16.6,20.4,11.8,20.4z"/>
<path d="M11.8,4.8c-4.2,0-7.5,3.2-7.5,7.3s3.4,7.3,7.5,7.3c4.2,0,7.5-3.2,7.5-7.3S16,4.8,11.8,4.8z M16,17.4c0,0.2,0,0.3,0,0.3h-1.6
	c0,0,0,0,0,0c-0.1,0-2-5-3.8-4.8c-1.8,0.2,1.3,4.6,1.4,4.8H7.5c-0.1-0.5-0.2-0.9-0.3-1.4l0-0.3V16c-0.4-3,0.7-6,0.4-9.4H9
	c0.1,0.2,2.9,5.1,4.2,4.6c1.3-0.5-2.1-4.6-2.1-4.6s0.4,0,0.6,0H16c0,0,0,0,0.1,0.1C17.2,9.7,16.1,15.5,16,17.4z"/>
</svg>
